<svg width="86" height="86" viewBox="0 0 86 86" fill="none" xmlns="http://www.w3.org/2000/svg">
    <path
        d="M85.7812 43C85.7812 66.627 66.6292 85.78 43.0012 85.78C19.3742 85.781 0.220215 66.627 0.220215 43C0.220215 19.373 19.3742 0.219971 43.0002 0.219971C66.6282 0.219971 85.7812 19.373 85.7812 43ZM67.3722 37.682H55.8392L63.9952 29.526C64.5922 28.929 64.6902 28.058 64.2182 27.584L58.4152 21.782C57.9402 21.307 57.0692 21.408 56.4722 22.006L48.3182 30.161V18.627C48.3182 17.781 47.7742 17.096 47.1032 17.096H38.8972C38.2252 17.096 37.6812 17.782 37.6812 18.627V30.337L29.3222 22.138C28.7182 21.546 27.8492 21.454 27.3792 21.934L21.6342 27.792C21.1642 28.271 21.2702 29.139 21.8752 29.731L29.9812 37.681H18.6272C17.7812 37.681 17.0962 38.225 17.0962 38.895V47.102C17.0962 47.774 17.7822 48.317 18.6272 48.317H30.1612L22.0052 56.473C21.4072 57.07 21.3072 57.94 21.7812 58.413L27.5832 64.215C28.0582 64.691 28.9272 64.591 29.5252 63.993L37.6802 55.837V67.372C37.6802 68.218 38.2242 68.903 38.8962 68.903H47.1022C47.7732 68.903 48.3172 68.217 48.3172 67.372V55.667L56.6752 63.865C57.2782 64.455 58.1482 64.548 58.6172 64.068L64.3642 58.21C64.8352 57.731 64.7252 56.86 64.1232 56.27L56.0142 48.318H67.3712C68.2172 48.318 68.9032 47.775 68.9032 47.103V38.896C68.9052 38.226 68.2182 37.682 67.3722 37.682Z"
        fill="black" />
</svg>