<svg width="126" height="126" viewBox="0 0 126 126" fill="none" xmlns="http://www.w3.org/2000/svg">
<rect width="125.561" height="125.56" rx="25" fill="#6A69C3"/>
<path d="M105.561 62.78C105.561 86.407 86.409 105.56 62.781 105.56C39.154 105.561 20 86.407 20 62.78C20 39.153 39.154 20 62.78 20C86.408 20 105.561 39.153 105.561 62.78ZM87.152 57.462H75.619L83.775 49.306C84.372 48.709 84.47 47.838 83.998 47.364L78.195 41.562C77.72 41.087 76.849 41.188 76.252 41.786L68.098 49.941V38.407C68.098 37.561 67.554 36.876 66.883 36.876H58.677C58.005 36.876 57.461 37.562 57.461 38.407V50.117L49.102 41.918C48.498 41.326 47.629 41.234 47.159 41.714L41.414 47.572C40.944 48.051 41.05 48.919 41.655 49.511L49.761 57.461H38.407C37.561 57.461 36.876 58.005 36.876 58.675V66.882C36.876 67.554 37.562 68.097 38.407 68.097H49.941L41.785 76.253C41.187 76.85 41.087 77.72 41.561 78.193L47.363 83.995C47.838 84.471 48.707 84.371 49.305 83.773L57.46 75.617V87.152C57.46 87.998 58.004 88.683 58.676 88.683H66.882C67.553 88.683 68.097 87.997 68.097 87.152V75.447L76.455 83.645C77.058 84.235 77.928 84.328 78.397 83.848L84.144 77.99C84.615 77.511 84.505 76.64 83.903 76.05L75.794 68.098H87.151C87.997 68.098 88.683 67.555 88.683 66.883V58.676C88.685 58.006 87.998 57.462 87.152 57.462Z" fill="white"/>
</svg>
